<?xml version="1.0" encoding="utf-8"?>
<!-- Generator: Adobe Illustrator 14.0.0, SVG Export Plug-In . SVG Version: 6.00 Build 43363)  -->
<!DOCTYPE svg PUBLIC "-//W3C//DTD SVG 1.1//EN" "http://www.w3.org/Graphics/SVG/1.1/DTD/svg11.dtd">
<svg version="1.1" id="레이어_1" xmlns="http://www.w3.org/2000/svg" 
xmlns:xlink="http://www.w3.org/1999/xlink" x="0px"
	 y="0px" width="200px" height="80px" viewBox="0 0 800 300" 
	 style="enable-background:new 0 0 800 300;" xml:space="preserve">
<style type="text/css">

	.st0{fill:#F8B62D;
		animation: color 2s infinite;
	}<!-- 글자 -->
	.st0:nth-child(1){animation-delay:.1s;}
	.st0:nth-child(2){animation-delay:.2s;}
	.st0:nth-child(3){animation-delay:.3s;}
	.st0:nth-child(4){animation-delay:.4s;}
	.st0:nth-child(5){animation-delay:.5s;}
	.st0:nth-child(6){animation-delay:.6s;}
	.st0:nth-child(7){animation-delay:.7s;}
	.st0:nth-child(8){animation-delay:.8s;}
	.st0:nth-child(9){animation-delay:.9s;}


	@keyframes color{
		50%{fill:#faa;}
	}

	.st1{fill:none;stroke:#F8B62D;stroke-width:8;
		stroke-dashArray:2900px;
		animation: line 5s infinite;
	}<!-- 글자 선 -->
	@keyframes line{
		50%{stroke-dashoffset: 2910px;}
	}
	


</style>
<path class="st1" d="M36.792,78.225v146.366h45.515v-47.667h6.636c12.318,0,21.61-0.654,28.406-2.001l0.185-0.039
	c5.75-1.252,11.406-3.793,16.813-7.552c2.446-1.701,4.696-3.691,6.764-5.929c-0.216,2.031-0.347,4.071-0.347,6.124
	c0,12.147,2.406,22.754,7.152,31.523c4.946,9.139,12.249,16.161,21.705,20.871c8.974,4.471,18.551,6.737,28.465,6.737
	c16.284,0,30.04-5.604,40.885-16.659c6.966-7.101,11.701-15.434,14.194-24.88v39.471h44.222v-38.272
	c0-19.146,1.042-25.774,1.664-28.022c1.083-3.919,2.135-4.955,2.131-4.955h0c0.241-0.191,0.807-0.639,2.41-0.639
	c1.483,0,3.594,0.838,5.943,2.358l10.624,6.88l3.403-9.583h0.458v29.909c0,12.111,0.517,16.52,0.918,18.754
	c0.888,5.491,2.552,9.91,5.085,13.507c2.731,3.882,6.78,6.964,12.035,9.161c4.717,1.972,9.987,2.971,15.666,2.971
	c8.455,0,16.218-1.49,23.075-4.429l1.231-0.527v2.888h45.515V170.89H467c0.408,10.744,2.768,20.214,7.068,28.16
	c4.945,9.139,12.248,16.161,21.705,20.872c8.973,4.471,18.551,6.737,28.465,6.737c16.283,0,30.039-5.604,40.883-16.659
	c8.082-8.236,13.178-18.12,15.23-29.491v44.082h44.047h0.176h44.045v-45.809c1.049,7.531,3.162,14.33,6.375,20.268
	c4.945,9.139,12.248,16.161,21.705,20.872c8.975,4.471,18.551,6.737,28.465,6.737c16.285,0,30.041-5.604,40.885-16.659
	c10.793-11.001,16.266-24.942,16.266-41.438c0-16.386-5.432-30.215-16.146-41.106c-10.76-10.932-24.613-16.475-41.176-16.475
	c-10.615,0-20.418,2.411-29.139,7.168c-8.996,4.905-16.031,12.092-20.912,21.359c-3.184,6.046-5.279,12.315-6.322,18.721v-47.007
	h-40.471v-3.75h40.471V78.225h-44.045h-0.176h-44.047v78.436c-2.041-11.271-7.098-21.06-15.111-29.205
	c-10.76-10.932-24.611-16.475-41.174-16.475c-10.615,0-20.42,2.411-29.141,7.168c-5.674,3.095-10.563,7.101-14.629,11.959v-0.595
	h-52.752v-9.91h61.113V78.225H382.03v34.824h-13.703V73.341l-44.308,25.768v13.94h-4.952c-4.079-1.362-8.271-2.068-12.545-2.068
	c-3.944,0-7.661,0.694-11.107,2.068h-42.25v39.011c-2.479-9.35-7.175-17.59-14.076-24.604
	c-10.759-10.932-24.612-16.475-41.175-16.475c-10.615,0-20.419,2.411-29.138,7.168c-5.997,3.271-11.101,7.576-15.298,12.815
	c0.071-1.266,0.116-2.549,0.116-3.863c0-12.266-3.163-22.596-9.401-30.707c-6.246-8.119-14.179-13.484-23.525-15.932
	c-3.584-0.961-10.897-2.237-32.93-2.237H37.458 M382.03,180.963l-10.666,3.891c-1.181,0.431-2.166,0.754-2.979,0.996
	c-0.034-1.599-0.058-3.739-0.058-6.6v-26.893h13.703V180.963z"/>
<g>
	<path class="st0" d="M47.001,211.124V91.001h38.921c14.749,0,24.363,0.602,28.842,1.803c6.883,1.803,12.646,5.723,17.29,11.758
		c4.642,6.037,6.965,13.835,6.965,23.393c0,7.375-1.339,13.575-4.015,18.601c-2.677,5.026-6.078,8.973-10.202,11.841
		c-4.125,2.867-8.317,4.766-12.578,5.694c-5.791,1.147-14.175,1.721-25.155,1.721H71.255v45.313H47.001z M71.255,111.322v34.086
		H84.53c9.559,0,15.95-0.627,19.174-1.884c3.222-1.257,5.749-3.223,7.579-5.9c1.83-2.676,2.745-5.789,2.745-9.341
		c0-4.37-1.284-7.975-3.851-10.816c-2.568-2.84-5.818-4.615-9.751-5.326c-2.896-0.545-8.713-0.819-17.453-0.819H71.255z"/>
	<path class="st0" d="M153.441,166.385c0-7.646,1.884-15.048,5.654-22.205c3.769-7.155,9.108-12.619,16.019-16.388
		c6.91-3.77,14.626-5.654,23.148-5.654c13.164,0,23.953,4.275,32.366,12.823c8.412,8.551,12.619,19.353,12.619,32.407
		c0,13.166-4.248,24.077-12.741,32.735c-8.495,8.658-19.188,12.987-32.08,12.987c-7.976,0-15.583-1.803-22.82-5.408
		c-7.239-3.605-12.742-8.891-16.511-15.855C155.325,184.862,153.441,176.382,153.441,166.385z M177.039,167.614
		c0,8.632,2.049,15.24,6.146,19.829c4.097,4.589,9.149,6.883,15.159,6.883c6.009,0,11.048-2.294,15.118-6.883
		c4.069-4.589,6.104-11.252,6.104-19.993c0-8.521-2.036-15.077-6.104-19.665c-4.07-4.589-9.109-6.883-15.118-6.883
		c-6.009,0-11.062,2.294-15.159,6.883C179.088,152.373,177.039,158.983,177.039,167.614z"/>
	<path class="st0" d="M285.315,211.124H262.29v-87.02h21.386v12.373c3.659-5.845,6.951-9.696,9.874-11.554
		c2.921-1.856,6.24-2.786,9.956-2.786c5.244,0,10.296,1.448,15.159,4.343l-7.128,20.075c-3.879-2.512-7.485-3.77-10.816-3.77
		c-3.224,0-5.955,0.889-8.194,2.663c-2.24,1.776-4.002,4.986-5.285,9.628c-1.284,4.644-1.925,14.368-1.925,29.171V211.124z"/>
	<path class="st0" d="M372.483,124.104v18.354h-15.732v35.07c0,7.102,0.15,11.239,0.451,12.413c0.299,1.176,0.983,2.145,2.048,2.909
		c1.065,0.766,2.362,1.147,3.892,1.147c2.13,0,5.216-0.737,9.259-2.213l1.966,17.863c-5.354,2.294-11.417,3.441-18.19,3.441
		c-4.152,0-7.894-0.696-11.226-2.09c-3.333-1.393-5.777-3.195-7.333-5.408c-1.557-2.212-2.636-5.203-3.237-8.972
		c-0.492-2.676-0.737-8.084-0.737-16.225v-37.938h-10.57v-18.354h10.57v-17.289l23.107-13.438v30.728H372.483z"/>
	<path class="st0" d="M393.789,211.124V91.001h82.349v20.321h-58.095v28.433h50.146v20.321h-50.146v51.048H393.789z"/>
	<path class="st0" d="M479.641,166.385c0-7.646,1.885-15.048,5.654-22.205c3.769-7.155,9.107-12.619,16.019-16.388
		c6.91-3.77,14.627-5.654,23.148-5.654c13.164,0,23.953,4.275,32.366,12.823c8.411,8.551,12.618,19.353,12.618,32.407
		c0,13.166-4.248,24.077-12.741,32.735c-8.495,8.658-19.188,12.987-32.079,12.987c-7.977,0-15.583-1.803-22.82-5.408
		c-7.239-3.605-12.742-8.891-16.511-15.855C481.525,184.862,479.641,176.382,479.641,166.385z M503.239,167.614
		c0,8.632,2.049,15.24,6.146,19.829s9.149,6.883,15.159,6.883c6.008,0,11.048-2.294,15.117-6.883s6.104-11.252,6.104-19.993
		c0-8.521-2.035-15.077-6.104-19.665c-4.069-4.589-9.109-6.883-15.117-6.883c-6.01,0-11.063,2.294-15.159,6.883
		C505.288,152.373,503.239,158.983,503.239,167.614z"/>
	<path class="st0" d="M593.474,216.124V86.001h23.025v130.123H593.474z"/>
	<path class="st0" d="M640.097,100.305V86.001h23.025v14.304H640.097z M640.097,216.124v-97.02h23.025v97.02H640.097z"/>
	<path class="st0" d="M680.395,166.385c0-7.646,1.885-15.048,5.654-22.205c3.769-7.155,9.107-12.619,16.019-16.388
		c6.91-3.77,14.627-5.654,23.148-5.654c13.164,0,23.953,4.275,32.366,12.823c8.411,8.551,12.618,19.353,12.618,32.407
		c0,13.166-4.248,24.077-12.741,32.735c-8.495,8.658-19.188,12.987-32.079,12.987c-7.977,0-15.583-1.803-22.82-5.408
		c-7.239-3.605-12.742-8.891-16.511-15.855C682.279,184.862,680.395,176.382,680.395,166.385z M703.993,167.614
		c0,8.632,2.049,15.24,6.146,19.829s9.149,6.883,15.159,6.883c6.008,0,11.048-2.294,15.117-6.883s6.104-11.252,6.104-19.993
		c0-8.521-2.035-15.077-6.104-19.665c-4.069-4.589-9.109-6.883-15.117-6.883c-6.01,0-11.063,2.294-15.159,6.883
		C706.042,152.373,703.993,158.983,703.993,167.614z"/>
</g>
</svg>
